HIERARCHY
ROOT Hips
{
	OFFSET -3.958830 18.904000 13.208200
	CHANNELS 6 Xposition Yposition Zposition Zrotation Yrotation Xrotation 
	JOINT LHipJoint
	{
		OFFSET 0.000000 0.000000 0.000000
		CHANNELS 3 Zrotation Yrotation Xrotation
		JOINT LeftUpLeg
		{
			OFFSET 1.800000 -1.400000 0.085000
			CHANNELS 3 Zrotation Yrotation Xrotation
			JOINT LeftLeg
			{
				OFFSET 2.215000 -6.000000 0.000000
				CHANNELS 3 Zrotation Yrotation Xrotation
				JOINT LeftFoot
				{
					OFFSET 2.500000 -6.900000 0.000000
					CHANNELS 3 Zrotation Yrotation Xrotation
					JOINT LeftToeBase
					{
						OFFSET 0.200000 -0.500000 1.950000
						CHANNELS 3 Zrotation Yrotation Xrotation
						End Site
						{
							OFFSET 0.000000 0.000000 0.000000
						}
					}
				}
			}
		}
	}
	JOINT RHipJoint
	{
		OFFSET 0.000000 0.000000 0.000000
		CHANNELS 3 Zrotation Yrotation Xrotation
		JOINT RightUpLeg
		{
			OFFSET -1.800000 -1.400000 0.085000
			CHANNELS 3 Zrotation Yrotation Xrotation
			JOINT RightLeg
			{
				OFFSET -2.215000 -6.000000 0.000000
				CHANNELS 3 Zrotation Yrotation Xrotation
				JOINT RightFoot
				{
					OFFSET -2.500000 -6.900000 0.000000
					CHANNELS 3 Zrotation Yrotation Xrotation
					JOINT RightToeBase
					{
						OFFSET -0.200000 -0.500000 1.950000
						CHANNELS 3 Zrotation Yrotation Xrotation
						End Site
						{
							OFFSET 0.000000 0.000000 0.000000
						}
					}
				}
			}
		}
	}
	JOINT LowerBack
	{
		OFFSET 0.000000 0.000000 0.000000
		CHANNELS 3 Zrotation Yrotation Xrotation
		JOINT Spine
		{
			OFFSET -0.087000 1.940000 -0.288900
			CHANNELS 3 Zrotation Yrotation Xrotation
			JOINT Spine1
			{
				OFFSET 0.000000 1.950000 0.060000
				CHANNELS 3 Zrotation Yrotation Xrotation
				JOINT Neck
				{
					OFFSET 0.000000 0.000000 0.000000
					CHANNELS 3 Zrotation Yrotation Xrotation
					JOINT Neck1
					{
						OFFSET 0.000000 1.600000 0.340000
						CHANNELS 3 Zrotation Yrotation Xrotation
						JOINT Head
						{
							OFFSET 0.000000 1.667000 -0.240000
							CHANNELS 3 Zrotation Yrotation Xrotation
							End Site
							{
								OFFSET 0.000000 0.000000 0.000000
							}
						}
					}
				}
				JOINT LeftShoulder
				{
					OFFSET 0.000000 0.000000 0.000000
					CHANNELS 3 Zrotation Yrotation Xrotation
					JOINT LeftArm
					{
						OFFSET 2.700000 1.550000 -0.730000
						CHANNELS 3 Zrotation Yrotation Xrotation
						JOINT LeftForeArm
						{
							OFFSET 5.450000 0.000000 0.000000
							CHANNELS 3 Zrotation Yrotation Xrotation
							JOINT LeftHand
							{
								OFFSET 3.450000 0.000000 0.000000
								CHANNELS 3 Zrotation Yrotation Xrotation
								JOINT LeftHandIndex1
								{
									OFFSET 0.750000 0.000000 0.000000
									CHANNELS 3 Zrotation Yrotation Xrotation
									End Site
									{
										OFFSET 0.000000 0.000000 0.000000
									}
								}
							}
						}
					}
				}
				JOINT RightShoulder
				{
					OFFSET 0.000000 0.000000 0.000000
					CHANNELS 3 Zrotation Yrotation Xrotation
					JOINT RightArm
					{
						OFFSET -2.700000 1.550000 -0.730000
						CHANNELS 3 Zrotation Yrotation Xrotation
						JOINT RightForeArm
						{
							OFFSET -5.450000 0.000000 0.000000
							CHANNELS 3 Zrotation Yrotation Xrotation
							JOINT RightHand
							{
								OFFSET -3.450000 0.000000 0.000000
								CHANNELS 3 Zrotation Yrotation Xrotation
								JOINT RightHandIndex1
								{
									OFFSET -0.750000 0.000000 0.000000
									CHANNELS 3 Zrotation Yrotation Xrotation
									End Site
									{
										OFFSET 0.000000 0.000000 0.000000
									}
								}
							}
						}
					}
				}
			}
		}
	}
}
MOTION
Frames: 7
Frame Time: 0.016667
0.381600 16.751680 -0.318610 -2.739391 -0.958497 12.387571 -15.110518 13.845181 3.535352 10.786380 -1.858961 -12.892807 -6.555009 4.032602 1.657498 -0.327456 4.029175 3.444692 -0.182800 -0.840980 0.228760 17.967321 -10.688428 2.991620 -12.802009 1.404599 -13.414627 5.367166 -3.743345 3.254356 -0.110900 -2.863573 3.396022 -0.617450 0.554510 0.305690 -3.202855 -2.955438 -8.525345 10.179780 0.019200 6.322122 -3.808429 1.469838 -15.571976 4.116084 -3.123027 -13.953142 -9.847287 3.155107 42.886555 -1.905790 1.120640 4.555300 -4.771049 5.836407 3.504380 -12.296239 25.780867 -2.766007 14.524544 -10.622616 -0.613229 -3.981338 2.644423 0.721790 0.095350 -0.074030 0.046100 -2.322667 -0.785232 9.707704 15.409028 -24.193381 -4.528724 -14.657324 3.226097 1.124813 2.858766 -0.900431 -0.366100 0.190810 0.250200 -0.120610 
0.384390 16.748190 -0.309610 -2.737232 -0.956558 12.524192 -15.108721 13.834412 3.524292 10.709604 -1.870186 -12.919042 -6.466427 4.011200 1.649990 -0.321392 4.021847 3.451181 -0.186430 -0.846150 0.219560 17.972620 -10.689236 2.991084 -12.853286 1.417712 -13.476195 5.429316 -3.750391 3.257871 -0.104135 -2.877978 3.394013 -0.618950 0.565520 0.312370 -3.213661 -2.930351 -8.504092 10.206448 0.055506 6.098987 -3.752875 1.461708 -15.619726 4.075289 -3.177438 -13.820005 -9.850988 3.142502 42.488361 -1.912150 1.093960 4.995710 -4.421662 6.285547 3.399826 -12.642319 25.688840 -2.881685 14.635727 -10.786029 -0.624499 -3.997175 2.658294 0.705920 0.107280 -0.083960 0.051100 -2.608766 -1.190376 9.604114 15.539605 -24.125007 -4.572097 -14.739096 3.284673 1.111210 2.860561 -0.914125 -0.361750 0.184620 0.251970 -0.115270 
0.386190 16.743970 -0.297870 -2.776669 -0.931862 12.611236 -15.112900 13.814032 3.513677 10.777608 -1.861154 -12.870077 -6.525535 4.028013 1.642970 -0.323808 4.040688 3.450847 -0.187860 -0.846680 0.216310 17.975441 -10.687872 2.984565 -12.827179 1.409801 -13.408104 5.378098 -3.739507 3.190566 -0.097556 -2.899222 3.393574 -0.614830 0.577410 0.311490 -3.212233 -2.896005 -8.478394 10.176898 0.123597 5.857895 -3.602810 1.490510 -15.525079 4.070435 -3.119828 -13.585131 -9.622126 2.942365 42.029728 -2.283440 1.152080 5.203850 -4.223067 6.791262 3.196442 -12.820656 25.411243 -2.941175 14.706313 -10.683492 -0.628187 -4.016286 2.656671 0.694890 0.121180 -0.097160 0.053550 -2.831878 -1.744260 9.465570 15.604639 -24.154079 -4.587686 -14.827432 3.246118 1.095127 2.859820 -0.925901 -0.366360 0.186210 0.251750 -0.114050 
0.383980 16.740510 -0.283820 -2.665462 -0.876943 12.696326 -15.124465 13.784923 3.502630 10.711226 -1.862575 -12.786907 -6.525358 4.011615 1.551712 -0.311627 4.036820 3.455220 -0.188400 -0.842780 0.214880 17.969186 -10.690165 2.989325 -12.941669 1.386657 -13.299653 5.406332 -3.731894 3.000622 -0.098042 -2.930801 3.383753 -0.613640 0.581130 0.316670 -3.186696 -2.837932 -8.465965 9.769124 0.226553 5.539497 -3.289418 1.510709 -15.493232 4.050021 -2.958816 -13.412114 -9.287110 2.715960 42.002442 -2.669250 1.196530 5.661570 -4.008108 7.165441 3.050417 -12.802875 25.109308 -2.954802 14.709887 -10.480393 -0.612582 -4.033851 2.663003 0.675760 0.131990 -0.101680 0.055320 -2.996308 -2.270162 9.356093 15.721899 -24.410325 -4.602640 -15.089065 3.307320 1.096999 2.866581 -0.943512 -0.357940 0.178940 0.248160 -0.108060 
0.381250 16.737060 -0.270500 -2.537518 -0.862326 12.733606 -15.135852 13.765566 3.493924 10.598790 -1.858514 -12.663245 -6.497564 3.992308 1.473570 -0.313930 4.035744 3.452774 -0.189520 -0.845150 0.216820 17.961101 -10.691938 2.997548 -13.045337 1.367071 -13.173187 5.374627 -3.717231 2.770957 -0.099872 -2.955144 3.374223 -0.613810 0.578070 0.321950 -3.157776 -2.796382 -8.464072 9.385391 0.315544 5.318000 -3.053714 1.544152 -15.515270 4.061579 -2.743311 -13.283650 -8.904629 2.546606 42.276901 -3.012560 1.286750 5.886490 -3.795944 7.488755 2.924699 -12.654215 24.902748 -2.937479 14.598357 -10.328164 -0.611899 -4.048140 2.664105 0.671040 0.137610 -0.103730 0.049920 -3.218165 -2.781337 9.267536 15.979641 -24.737377 -4.690813 -15.430832 3.588346 1.096044 2.863701 -0.954742 -0.354720 0.171250 0.251720 -0.111240 
0.380880 16.733420 -0.257570 -2.503095 -0.849432 12.812648 -15.131938 13.748035 3.490959 10.578405 -1.851188 -12.607897 -6.535429 3.990941 1.401513 -0.308019 4.043150 3.444393 -0.206030 -0.854830 0.195820 17.967802 -10.694646 3.000174 -13.061061 1.360836 -13.122099 5.283211 -3.695501 2.641371 -0.091938 -2.971269 3.367204 -0.616140 0.585870 0.326540 -3.172915 -2.760648 -8.459199 9.385180 0.363333 5.083202 -3.143307 1.555689 -15.667527 4.034816 -2.575199 -13.163599 -8.590662 2.573515 42.553507 -2.967940 1.330010 6.553450 -3.541910 7.836681 2.794088 -12.359864 24.568805 -2.853137 14.546678 -10.120829 -0.589800 -4.072506 2.670942 0.653380 0.150540 -0.112630 0.044300 -3.457410 -3.290239 9.169935 16.319283 -25.024501 -4.795243 -15.800622 3.974495 1.088823 2.862242 -0.967319 -0.351230 0.162560 0.264900 -0.105860 
0.382140 16.729770 -0.246130 -2.566198 -0.871775 12.819340 -15.121812 13.742408 3.488047 10.688950 -1.830818 -12.549234 -6.632179 4.028610 1.441601 -0.300081 4.066640 3.438599 -0.213890 -0.859860 0.186540 17.978682 -10.697519 2.998661 -13.046510 1.348383 -13.045443 5.259322 -3.698115 2.620110 -0.086824 -2.984606 3.369615 -0.618050 0.598090 0.327560 -3.202936 -2.745915 -8.454457 9.627102 0.376446 4.957886 -3.335725 1.575844 -15.774287 4.010927 -2.454848 -13.053486 -8.372858 2.604710 42.796412 -2.920420 1.355700 7.069150 -3.527332 8.077108 2.663000 -11.886251 24.358866 -2.715715 14.461745 -9.898068 -0.566585 -4.090453 2.667791 0.640960 0.163020 -0.120800 0.044990 -3.487749 -3.647981 9.097961 16.460490 -25.363446 -4.835590 -16.106484 4.357048 1.074724 2.856734 -0.976879 -0.350680 0.164330 0.269260 -0.101340 
